<?xml version="1.0" encoding="UTF-8" standalone="no"?>
<!DOCTYPE svg PUBLIC "-//W3C//DTD SVG 1.1//EN"
 "http://www.w3.org/Graphics/SVG/1.1/DTD/svg11.dtd">
<!-- Generated by graphviz version 2.36.0 (20140111.2315)
 -->
<!-- Title: G Pages: 1 -->
<svg width="2343pt" height="1555pt"
 viewBox="0.00 0.00 2343.20 1555.16" xmlns="http://www.w3.org/2000/svg" xmlns:xlink="http://www.w3.org/1999/xlink">
<g id="graph0" class="graph" transform="scale(1 1) rotate(0) translate(21.6 1533.56)">
<title>G</title>
<polygon fill="#111111" stroke="none" points="-21.6,21.6 -21.6,-1533.56 2321.6,-1533.56 2321.6,21.6 -21.6,21.6"/>
<!-- annotation/index.ts -->
<g id="node1" class="node"><title>annotation/index.ts</title>
<path fill="none" stroke="#c6c5fe" d="M1577.33,-1370.5C1577.33,-1370.5 1458.67,-1370.5 1458.67,-1370.5 1454.83,-1370.5 1451,-1366.67 1451,-1362.83 1451,-1362.83 1451,-1355.17 1451,-1355.17 1451,-1351.33 1454.83,-1347.5 1458.67,-1347.5 1458.67,-1347.5 1577.33,-1347.5 1577.33,-1347.5 1581.17,-1347.5 1585,-1351.33 1585,-1355.17 1585,-1355.17 1585,-1362.83 1585,-1362.83 1585,-1366.67 1581.17,-1370.5 1577.33,-1370.5"/>
<text text-anchor="middle" x="1518" y="-1355.3" font-family="Arial" font-size="14.00" fill="#c6c5fe">annotation/index.ts</text>
</g>
<!-- annotation/inject.ts -->
<g id="node2" class="node"><title>annotation/inject.ts</title>
<path fill="none" stroke="#c6c5fe" d="M1857.83,-1436.5C1857.83,-1436.5 1740.17,-1436.5 1740.17,-1436.5 1736.33,-1436.5 1732.5,-1432.67 1732.5,-1428.83 1732.5,-1428.83 1732.5,-1421.17 1732.5,-1421.17 1732.5,-1417.33 1736.33,-1413.5 1740.17,-1413.5 1740.17,-1413.5 1857.83,-1413.5 1857.83,-1413.5 1861.67,-1413.5 1865.5,-1417.33 1865.5,-1421.17 1865.5,-1421.17 1865.5,-1428.83 1865.5,-1428.83 1865.5,-1432.67 1861.67,-1436.5 1857.83,-1436.5"/>
<text text-anchor="middle" x="1799" y="-1421.3" font-family="Arial" font-size="14.00" fill="#c6c5fe">annotation/inject.ts</text>
</g>
<!-- annotation/index.ts&#45;&gt;annotation/inject.ts -->
<g id="edge1" class="edge"><title>annotation/index.ts&#45;&gt;annotation/inject.ts</title>
<path fill="none" stroke="#757575" d="M1566.64,-1370.27C1614.65,-1381.63 1688.78,-1399.16 1740.13,-1411.31"/>
<polygon fill="#757575" stroke="#757575" points="1739.55,-1414.77 1750.08,-1413.67 1741.16,-1407.96 1739.55,-1414.77"/>
</g>
<!-- annotation/objectDef.ts -->
<g id="node3" class="node"><title>annotation/objectDef.ts</title>
<path fill="none" stroke="#c6c5fe" d="M2102.33,-1398.5C2102.33,-1398.5 1957.67,-1398.5 1957.67,-1398.5 1953.83,-1398.5 1950,-1394.67 1950,-1390.83 1950,-1390.83 1950,-1383.17 1950,-1383.17 1950,-1379.33 1953.83,-1375.5 1957.67,-1375.5 1957.67,-1375.5 2102.33,-1375.5 2102.33,-1375.5 2106.17,-1375.5 2110,-1379.33 2110,-1383.17 2110,-1383.17 2110,-1390.83 2110,-1390.83 2110,-1394.67 2106.17,-1398.5 2102.33,-1398.5"/>
<text text-anchor="middle" x="2030" y="-1383.3" font-family="Arial" font-size="14.00" fill="#c6c5fe">annotation/objectDef.ts</text>
</g>
<!-- annotation/index.ts&#45;&gt;annotation/objectDef.ts -->
<g id="edge2" class="edge"><title>annotation/index.ts&#45;&gt;annotation/objectDef.ts</title>
<path fill="none" stroke="#757575" d="M1585.15,-1362.63C1675.7,-1367.6 1838.52,-1376.54 1939.78,-1382.1"/>
<polygon fill="#757575" stroke="#757575" points="1939.82,-1385.61 1949.99,-1382.66 1940.2,-1378.62 1939.82,-1385.61"/>
</g>
<!-- annotation/provide.ts -->
<g id="node4" class="node"><title>annotation/provide.ts</title>
<path fill="none" stroke="#c6c5fe" d="M2095.33,-1318.5C2095.33,-1318.5 1964.67,-1318.5 1964.67,-1318.5 1960.83,-1318.5 1957,-1314.67 1957,-1310.83 1957,-1310.83 1957,-1303.17 1957,-1303.17 1957,-1299.33 1960.83,-1295.5 1964.67,-1295.5 1964.67,-1295.5 2095.33,-1295.5 2095.33,-1295.5 2099.17,-1295.5 2103,-1299.33 2103,-1303.17 2103,-1303.17 2103,-1310.83 2103,-1310.83 2103,-1314.67 2099.17,-1318.5 2095.33,-1318.5"/>
<text text-anchor="middle" x="2030" y="-1303.3" font-family="Arial" font-size="14.00" fill="#c6c5fe">annotation/provide.ts</text>
</g>
<!-- annotation/index.ts&#45;&gt;annotation/provide.ts -->
<g id="edge3" class="edge"><title>annotation/index.ts&#45;&gt;annotation/provide.ts</title>
<path fill="none" stroke="#757575" d="M1585.15,-1352.26C1677.78,-1342.81 1846.06,-1325.65 1946.68,-1315.39"/>
<polygon fill="#757575" stroke="#757575" points="1947.21,-1318.86 1956.8,-1314.36 1946.5,-1311.89 1947.21,-1318.86"/>
</g>
<!-- interfaces.ts -->
<g id="node5" class="node"><title>interfaces.ts</title>
<path fill="none" stroke="#cfffac" d="M2270.33,-836.5C2270.33,-836.5 2193.67,-836.5 2193.67,-836.5 2189.83,-836.5 2186,-832.667 2186,-828.833 2186,-828.833 2186,-821.167 2186,-821.167 2186,-817.333 2189.83,-813.5 2193.67,-813.5 2193.67,-813.5 2270.33,-813.5 2270.33,-813.5 2274.17,-813.5 2278,-817.333 2278,-821.167 2278,-821.167 2278,-828.833 2278,-828.833 2278,-832.667 2274.17,-836.5 2270.33,-836.5"/>
<text text-anchor="middle" x="2232" y="-821.3" font-family="Arial" font-size="14.00" fill="#cfffac">interfaces.ts</text>
</g>
<!-- annotation/inject.ts&#45;&gt;interfaces.ts -->
<g id="edge4" class="edge"><title>annotation/inject.ts&#45;&gt;interfaces.ts</title>
<path fill="none" stroke="#757575" d="M1821.86,-1413.67C1847.6,-1400.73 1891.92,-1379.73 1932,-1367 2016.73,-1340.08 2065.1,-1389.83 2128,-1327 2197.65,-1257.43 2223.85,-933.006 2229.67,-846.335"/>
<polygon fill="#757575" stroke="#757575" points="2233.17,-846.556 2230.32,-836.35 2226.18,-846.101 2233.17,-846.556"/>
</g>
<!-- utils/decorator.ts -->
<g id="node6" class="node"><title>utils/decorator.ts</title>
<path fill="none" stroke="#c6c5fe" d="M2081.83,-1439.5C2081.83,-1439.5 1978.17,-1439.5 1978.17,-1439.5 1974.33,-1439.5 1970.5,-1435.67 1970.5,-1431.83 1970.5,-1431.83 1970.5,-1424.17 1970.5,-1424.17 1970.5,-1420.33 1974.33,-1416.5 1978.17,-1416.5 1978.17,-1416.5 2081.83,-1416.5 2081.83,-1416.5 2085.67,-1416.5 2089.5,-1420.33 2089.5,-1424.17 2089.5,-1424.17 2089.5,-1431.83 2089.5,-1431.83 2089.5,-1435.67 2085.67,-1439.5 2081.83,-1439.5"/>
<text text-anchor="middle" x="2030" y="-1424.3" font-family="Arial" font-size="14.00" fill="#c6c5fe">utils/decorator.ts</text>
</g>
<!-- annotation/inject.ts&#45;&gt;utils/decorator.ts -->
<g id="edge5" class="edge"><title>annotation/inject.ts&#45;&gt;utils/decorator.ts</title>
<path fill="none" stroke="#757575" d="M1865.62,-1425.86C1895.18,-1426.25 1930.08,-1426.7 1960.03,-1427.1"/>
<polygon fill="#757575" stroke="#757575" points="1960.35,-1430.6 1970.4,-1427.23 1960.44,-1423.6 1960.35,-1430.6"/>
</g>
<!-- utils/metadata.ts -->
<g id="node7" class="node"><title>utils/metadata.ts</title>
<path fill="none" stroke="#c6c5fe" d="M2081.33,-1480.5C2081.33,-1480.5 1978.67,-1480.5 1978.67,-1480.5 1974.83,-1480.5 1971,-1476.67 1971,-1472.83 1971,-1472.83 1971,-1465.17 1971,-1465.17 1971,-1461.33 1974.83,-1457.5 1978.67,-1457.5 1978.67,-1457.5 2081.33,-1457.5 2081.33,-1457.5 2085.17,-1457.5 2089,-1461.33 2089,-1465.17 2089,-1465.17 2089,-1472.83 2089,-1472.83 2089,-1476.67 2085.17,-1480.5 2081.33,-1480.5"/>
<text text-anchor="middle" x="2030" y="-1465.3" font-family="Arial" font-size="14.00" fill="#c6c5fe">utils/metadata.ts</text>
</g>
<!-- annotation/inject.ts&#45;&gt;utils/metadata.ts -->
<g id="edge6" class="edge"><title>annotation/inject.ts&#45;&gt;utils/metadata.ts</title>
<path fill="none" stroke="#757575" d="M1858.68,-1436.27C1889.9,-1442.27 1928.46,-1449.68 1960.99,-1455.93"/>
<polygon fill="#757575" stroke="#757575" points="1960.39,-1459.38 1970.87,-1457.83 1961.71,-1452.51 1960.39,-1459.38"/>
</g>
<!-- annotation/objectDef.ts&#45;&gt;interfaces.ts -->
<g id="edge7" class="edge"><title>annotation/objectDef.ts&#45;&gt;interfaces.ts</title>
<path fill="none" stroke="#757575" d="M2107.76,-1375.53C2115.33,-1371.87 2122.3,-1367.13 2128,-1361 2199.65,-1283.99 2224.49,-937.451 2229.82,-846.772"/>
<polygon fill="#757575" stroke="#757575" points="2233.33,-846.764 2230.4,-836.582 2226.34,-846.367 2233.33,-846.764"/>
</g>
<!-- utils/metaKeys.ts -->
<g id="node8" class="node"><title>utils/metaKeys.ts</title>
<path fill="none" stroke="#cfffac" d="M2285.33,-1459.5C2285.33,-1459.5 2178.67,-1459.5 2178.67,-1459.5 2174.83,-1459.5 2171,-1455.67 2171,-1451.83 2171,-1451.83 2171,-1444.17 2171,-1444.17 2171,-1440.33 2174.83,-1436.5 2178.67,-1436.5 2178.67,-1436.5 2285.33,-1436.5 2285.33,-1436.5 2289.17,-1436.5 2293,-1440.33 2293,-1444.17 2293,-1444.17 2293,-1451.83 2293,-1451.83 2293,-1455.67 2289.17,-1459.5 2285.33,-1459.5"/>
<text text-anchor="middle" x="2232" y="-1444.3" font-family="Arial" font-size="14.00" fill="#cfffac">utils/metaKeys.ts</text>
</g>
<!-- annotation/objectDef.ts&#45;&gt;utils/metaKeys.ts -->
<g id="edge8" class="edge"><title>annotation/objectDef.ts&#45;&gt;utils/metaKeys.ts</title>
<path fill="none" stroke="#757575" d="M2090.37,-1398.3C2102.89,-1401.12 2115.95,-1404.38 2128,-1408 2150.95,-1414.89 2176.02,-1424.58 2195.68,-1432.7"/>
<polygon fill="#757575" stroke="#757575" points="2194.57,-1436.03 2205.15,-1436.65 2197.27,-1429.57 2194.57,-1436.03"/>
</g>
<!-- annotation/provide.ts&#45;&gt;interfaces.ts -->
<g id="edge9" class="edge"><title>annotation/provide.ts&#45;&gt;interfaces.ts</title>
<path fill="none" stroke="#757575" d="M2103.23,-1297.28C2112.49,-1293.43 2121.11,-1288.17 2128,-1281 2189.63,-1216.87 2221.23,-928.263 2229.05,-846.594"/>
<polygon fill="#757575" stroke="#757575" points="2232.55,-846.771 2229.99,-836.489 2225.58,-846.119 2232.55,-846.771"/>
</g>
<!-- utils/errMsg.ts -->
<g id="node9" class="node"><title>utils/errMsg.ts</title>
<path fill="none" stroke="#cfffac" d="M2276.33,-1368.5C2276.33,-1368.5 2187.67,-1368.5 2187.67,-1368.5 2183.83,-1368.5 2180,-1364.67 2180,-1360.83 2180,-1360.83 2180,-1353.17 2180,-1353.17 2180,-1349.33 2183.83,-1345.5 2187.67,-1345.5 2187.67,-1345.5 2276.33,-1345.5 2276.33,-1345.5 2280.17,-1345.5 2284,-1349.33 2284,-1353.17 2284,-1353.17 2284,-1360.83 2284,-1360.83 2284,-1364.67 2280.17,-1368.5 2276.33,-1368.5"/>
<text text-anchor="middle" x="2232" y="-1353.3" font-family="Arial" font-size="14.00" fill="#cfffac">utils/errMsg.ts</text>
</g>
<!-- annotation/provide.ts&#45;&gt;utils/errMsg.ts -->
<g id="edge10" class="edge"><title>annotation/provide.ts&#45;&gt;utils/errMsg.ts</title>
<path fill="none" stroke="#757575" d="M2076.38,-1318.35C2105.92,-1325.73 2144.62,-1335.41 2175.92,-1343.23"/>
<polygon fill="#757575" stroke="#757575" points="2175.25,-1346.67 2185.8,-1345.7 2176.94,-1339.88 2175.25,-1346.67"/>
</g>
<!-- utils/decorator.ts&#45;&gt;interfaces.ts -->
<g id="edge93" class="edge"><title>utils/decorator.ts&#45;&gt;interfaces.ts</title>
<path fill="none" stroke="#757575" d="M2089.68,-1426.48C2103.9,-1423.34 2117.9,-1417.49 2128,-1407 2168.04,-1365.4 2217.29,-947.067 2228.61,-846.605"/>
<polygon fill="#757575" stroke="#757575" points="2232.11,-846.773 2229.74,-836.446 2225.15,-845.995 2232.11,-846.773"/>
</g>
<!-- utils/decorator.ts&#45;&gt;utils/metaKeys.ts -->
<g id="edge95" class="edge"><title>utils/decorator.ts&#45;&gt;utils/metaKeys.ts</title>
<path fill="none" stroke="#757575" d="M2089.66,-1433.87C2111.94,-1436.09 2137.56,-1438.66 2160.81,-1440.98"/>
<polygon fill="#757575" stroke="#757575" points="2160.66,-1444.48 2170.96,-1442 2161.36,-1437.52 2160.66,-1444.48"/>
</g>
<!-- utils/decorator.ts&#45;&gt;utils/errMsg.ts -->
<g id="edge94" class="edge"><title>utils/decorator.ts&#45;&gt;utils/errMsg.ts</title>
<path fill="none" stroke="#757575" d="M2089.58,-1417.68C2102.4,-1414.77 2115.79,-1411.22 2128,-1407 2153.95,-1398.04 2181.88,-1384.19 2202.1,-1373.34"/>
<polygon fill="#757575" stroke="#757575" points="2203.99,-1376.3 2211.09,-1368.44 2200.64,-1370.15 2203.99,-1376.3"/>
</g>
<!-- utils/metadata.ts&#45;&gt;interfaces.ts -->
<g id="edge97" class="edge"><title>utils/metadata.ts&#45;&gt;interfaces.ts</title>
<path fill="none" stroke="#757575" d="M2089.25,-1467.66C2103.65,-1464.56 2117.84,-1458.67 2128,-1448 2170.75,-1403.08 2218.39,-950.923 2228.88,-846.457"/>
<polygon fill="#757575" stroke="#757575" points="2232.37,-846.758 2229.88,-836.46 2225.41,-846.063 2232.37,-846.758"/>
</g>
<!-- utils/metadata.ts&#45;&gt;utils/metaKeys.ts -->
<g id="edge98" class="edge"><title>utils/metadata.ts&#45;&gt;utils/metaKeys.ts</title>
<path fill="none" stroke="#757575" d="M2089.12,-1462.9C2111.42,-1460.56 2137.12,-1457.86 2160.46,-1455.41"/>
<polygon fill="#757575" stroke="#757575" points="2161.07,-1458.86 2170.65,-1454.34 2160.34,-1451.9 2161.07,-1458.86"/>
</g>
<!-- base/configuration.ts -->
<g id="node10" class="node"><title>base/configuration.ts</title>
<path fill="none" stroke="#c6c5fe" d="M2095.33,-330.5C2095.33,-330.5 1964.67,-330.5 1964.67,-330.5 1960.83,-330.5 1957,-326.667 1957,-322.833 1957,-322.833 1957,-315.167 1957,-315.167 1957,-311.333 1960.83,-307.5 1964.67,-307.5 1964.67,-307.5 2095.33,-307.5 2095.33,-307.5 2099.17,-307.5 2103,-311.333 2103,-315.167 2103,-315.167 2103,-322.833 2103,-322.833 2103,-326.667 2099.17,-330.5 2095.33,-330.5"/>
<text text-anchor="middle" x="2030" y="-315.3" font-family="Arial" font-size="14.00" fill="#c6c5fe">base/configuration.ts</text>
</g>
<!-- base/configuration.ts&#45;&gt;interfaces.ts -->
<g id="edge11" class="edge"><title>base/configuration.ts&#45;&gt;interfaces.ts</title>
<path fill="none" stroke="#757575" d="M2103.3,-328.651C2112.55,-332.514 2121.15,-337.798 2128,-345 2192.63,-412.983 2222.27,-718.928 2229.31,-803.359"/>
<polygon fill="#757575" stroke="#757575" points="2225.82,-803.667 2230.12,-813.35 2232.8,-803.1 2225.82,-803.667"/>
</g>
<!-- utils/lodashWrap.ts -->
<g id="node11" class="node"><title>utils/lodashWrap.ts</title>
<path fill="none" stroke="#cfffac" d="M2291.83,-121.5C2291.83,-121.5 2172.17,-121.5 2172.17,-121.5 2168.33,-121.5 2164.5,-117.667 2164.5,-113.833 2164.5,-113.833 2164.5,-106.167 2164.5,-106.167 2164.5,-102.333 2168.33,-98.5 2172.17,-98.5 2172.17,-98.5 2291.83,-98.5 2291.83,-98.5 2295.67,-98.5 2299.5,-102.333 2299.5,-106.167 2299.5,-106.167 2299.5,-113.833 2299.5,-113.833 2299.5,-117.667 2295.67,-121.5 2291.83,-121.5"/>
<text text-anchor="middle" x="2232" y="-106.3" font-family="Arial" font-size="14.00" fill="#cfffac">utils/lodashWrap.ts</text>
</g>
<!-- base/configuration.ts&#45;&gt;utils/lodashWrap.ts -->
<g id="edge12" class="edge"><title>base/configuration.ts&#45;&gt;utils/lodashWrap.ts</title>
<path fill="none" stroke="#757575" d="M2042.04,-307.466C2074.89,-273.137 2172.26,-171.385 2212.88,-128.934"/>
<polygon fill="#757575" stroke="#757575" points="2215.61,-131.144 2220,-121.499 2210.55,-126.304 2215.61,-131.144"/>
</g>
<!-- base/decoratorManager.ts -->
<g id="node12" class="node"><title>base/decoratorManager.ts</title>
<path fill="none" stroke="#cfffac" d="M277.333,-22.5C277.333,-22.5 112.667,-22.5 112.667,-22.5 108.833,-22.5 105,-18.6667 105,-14.8333 105,-14.8333 105,-7.16667 105,-7.16667 105,-3.33333 108.833,0.5 112.667,0.5 112.667,0.5 277.333,0.5 277.333,0.5 281.167,0.5 285,-3.33333 285,-7.16667 285,-7.16667 285,-14.8333 285,-14.8333 285,-18.6667 281.167,-22.5 277.333,-22.5"/>
<text text-anchor="middle" x="195" y="-7.3" font-family="Arial" font-size="14.00" fill="#cfffac">base/decoratorManager.ts</text>
</g>
<!-- base/functionDefinition.ts -->
<g id="node13" class="node"><title>base/functionDefinition.ts</title>
<path fill="none" stroke="#c6c5fe" d="M1877.83,-1180.5C1877.83,-1180.5 1720.17,-1180.5 1720.17,-1180.5 1716.33,-1180.5 1712.5,-1176.67 1712.5,-1172.83 1712.5,-1172.83 1712.5,-1165.17 1712.5,-1165.17 1712.5,-1161.33 1716.33,-1157.5 1720.17,-1157.5 1720.17,-1157.5 1877.83,-1157.5 1877.83,-1157.5 1881.67,-1157.5 1885.5,-1161.33 1885.5,-1165.17 1885.5,-1165.17 1885.5,-1172.83 1885.5,-1172.83 1885.5,-1176.67 1881.67,-1180.5 1877.83,-1180.5"/>
<text text-anchor="middle" x="1799" y="-1165.3" font-family="Arial" font-size="14.00" fill="#c6c5fe">base/functionDefinition.ts</text>
</g>
<!-- base/functionDefinition.ts&#45;&gt;interfaces.ts -->
<g id="edge15" class="edge"><title>base/functionDefinition.ts&#45;&gt;interfaces.ts</title>
<path fill="none" stroke="#757575" d="M1830.86,-1180.27C1893.79,-1201.1 2038.52,-1237.72 2128,-1171 2181.78,-1130.9 2217.64,-915.899 2227.95,-846.567"/>
<polygon fill="#757575" stroke="#757575" points="2231.45,-846.797 2229.43,-836.397 2224.52,-845.788 2231.45,-846.797"/>
</g>
<!-- base/objectCreator.ts -->
<g id="node14" class="node"><title>base/objectCreator.ts</title>
<path fill="none" stroke="#c6c5fe" d="M2097.33,-1162.5C2097.33,-1162.5 1962.67,-1162.5 1962.67,-1162.5 1958.83,-1162.5 1955,-1158.67 1955,-1154.83 1955,-1154.83 1955,-1147.17 1955,-1147.17 1955,-1143.33 1958.83,-1139.5 1962.67,-1139.5 1962.67,-1139.5 2097.33,-1139.5 2097.33,-1139.5 2101.17,-1139.5 2105,-1143.33 2105,-1147.17 2105,-1147.17 2105,-1154.83 2105,-1154.83 2105,-1158.67 2101.17,-1162.5 2097.33,-1162.5"/>
<text text-anchor="middle" x="2030" y="-1147.3" font-family="Arial" font-size="14.00" fill="#c6c5fe">base/objectCreator.ts</text>
</g>
<!-- base/functionDefinition.ts&#45;&gt;base/objectCreator.ts -->
<g id="edge13" class="edge"><title>base/functionDefinition.ts&#45;&gt;base/objectCreator.ts</title>
<path fill="none" stroke="#757575" d="M1885.6,-1162.27C1904.96,-1160.75 1925.51,-1159.13 1944.81,-1157.62"/>
<polygon fill="#757575" stroke="#757575" points="1945.09,-1161.11 1954.78,-1156.83 1944.54,-1154.13 1945.09,-1161.11"/>
</g>
<!-- base/scope.ts -->
<g id="node15" class="node"><title>base/scope.ts</title>
<path fill="none" stroke="#cfffac" d="M2073.83,-1064.5C2073.83,-1064.5 1986.17,-1064.5 1986.17,-1064.5 1982.33,-1064.5 1978.5,-1060.67 1978.5,-1056.83 1978.5,-1056.83 1978.5,-1049.17 1978.5,-1049.17 1978.5,-1045.33 1982.33,-1041.5 1986.17,-1041.5 1986.17,-1041.5 2073.83,-1041.5 2073.83,-1041.5 2077.67,-1041.5 2081.5,-1045.33 2081.5,-1049.17 2081.5,-1049.17 2081.5,-1056.83 2081.5,-1056.83 2081.5,-1060.67 2077.67,-1064.5 2073.83,-1064.5"/>
<text text-anchor="middle" x="2030" y="-1049.3" font-family="Arial" font-size="14.00" fill="#cfffac">base/scope.ts</text>
</g>
<!-- base/functionDefinition.ts&#45;&gt;base/scope.ts -->
<g id="edge14" class="edge"><title>base/functionDefinition.ts&#45;&gt;base/scope.ts</title>
<path fill="none" stroke="#757575" d="M1822.37,-1157.67C1863.33,-1136.92 1950.46,-1092.79 1997.43,-1068.99"/>
<polygon fill="#757575" stroke="#757575" points="1999.2,-1072.02 2006.53,-1064.38 1996.03,-1065.78 1999.2,-1072.02"/>
</g>
<!-- base/objectCreator.ts&#45;&gt;interfaces.ts -->
<g id="edge18" class="edge"><title>base/objectCreator.ts&#45;&gt;interfaces.ts</title>
<path fill="none" stroke="#757575" d="M2104.99,-1139.57C2113.44,-1135.93 2121.37,-1131.19 2128,-1125 2210.67,-1047.84 2226.99,-901.431 2230.21,-846.52"/>
<polygon fill="#757575" stroke="#757575" points="2233.7,-846.688 2230.7,-836.527 2226.71,-846.34 2233.7,-846.688"/>
</g>
<!-- base/messageSource.ts -->
<g id="node16" class="node"><title>base/messageSource.ts</title>
<path fill="none" stroke="#c6c5fe" d="M2105.83,-62.5C2105.83,-62.5 1954.17,-62.5 1954.17,-62.5 1950.33,-62.5 1946.5,-58.6667 1946.5,-54.8333 1946.5,-54.8333 1946.5,-47.1667 1946.5,-47.1667 1946.5,-43.3333 1950.33,-39.5 1954.17,-39.5 1954.17,-39.5 2105.83,-39.5 2105.83,-39.5 2109.67,-39.5 2113.5,-43.3333 2113.5,-47.1667 2113.5,-47.1667 2113.5,-54.8333 2113.5,-54.8333 2113.5,-58.6667 2109.67,-62.5 2105.83,-62.5"/>
<text text-anchor="middle" x="2030" y="-47.3" font-family="Arial" font-size="14.00" fill="#c6c5fe">base/messageSource.ts</text>
</g>
<!-- base/messageSource.ts&#45;&gt;interfaces.ts -->
<g id="edge16" class="edge"><title>base/messageSource.ts&#45;&gt;interfaces.ts</title>
<path fill="none" stroke="#757575" d="M2046.82,-62.4744C2068.98,-79.5084 2108.73,-113.73 2128,-153 2186.58,-272.372 2221.83,-702.18 2229.44,-803.497"/>
<polygon fill="#757575" stroke="#757575" points="2225.97,-803.997 2230.2,-813.711 2232.95,-803.48 2225.97,-803.997"/>
</g>
<!-- base/messageSource.ts&#45;&gt;utils/lodashWrap.ts -->
<g id="edge17" class="edge"><title>base/messageSource.ts&#45;&gt;utils/lodashWrap.ts</title>
<path fill="none" stroke="#757575" d="M2075.07,-62.3319C2091.7,-66.736 2110.77,-71.9343 2128,-77 2147.7,-82.792 2169.36,-89.6568 2187.72,-95.6212"/>
<polygon fill="#757575" stroke="#757575" points="2186.67,-98.961 2197.26,-98.7383 2188.84,-92.3069 2186.67,-98.961"/>
</g>
<!-- base/objectDefinition.ts -->
<g id="node17" class="node"><title>base/objectDefinition.ts</title>
<path fill="none" stroke="#c6c5fe" d="M1871.83,-1008.5C1871.83,-1008.5 1726.17,-1008.5 1726.17,-1008.5 1722.33,-1008.5 1718.5,-1004.67 1718.5,-1000.83 1718.5,-1000.83 1718.5,-993.167 1718.5,-993.167 1718.5,-989.333 1722.33,-985.5 1726.17,-985.5 1726.17,-985.5 1871.83,-985.5 1871.83,-985.5 1875.67,-985.5 1879.5,-989.333 1879.5,-993.167 1879.5,-993.167 1879.5,-1000.83 1879.5,-1000.83 1879.5,-1004.67 1875.67,-1008.5 1871.83,-1008.5"/>
<text text-anchor="middle" x="1799" y="-993.3" font-family="Arial" font-size="14.00" fill="#c6c5fe">base/objectDefinition.ts</text>
</g>
<!-- base/objectDefinition.ts&#45;&gt;interfaces.ts -->
<g id="edge22" class="edge"><title>base/objectDefinition.ts&#45;&gt;interfaces.ts</title>
<path fill="none" stroke="#757575" d="M1836.55,-985.673C1897.82,-966.285 2024.67,-924.414 2128,-879 2153.81,-867.657 2182.1,-852.625 2202.49,-841.301"/>
<polygon fill="#757575" stroke="#757575" points="2204.25,-844.326 2211.27,-836.386 2200.83,-838.219 2204.25,-844.326"/>
</g>
<!-- base/objectDefinition.ts&#45;&gt;base/configuration.ts -->
<g id="edge19" class="edge"><title>base/objectDefinition.ts&#45;&gt;base/configuration.ts</title>
<path fill="none" stroke="#757575" d="M1809.08,-985.504C1827.97,-961.054 1871.75,-901.501 1896,-845 1937.02,-749.434 2006.23,-427.366 2024.48,-340.655"/>
<polygon fill="#757575" stroke="#757575" points="2027.95,-341.153 2026.58,-330.648 2021.1,-339.716 2027.95,-341.153"/>
</g>
<!-- base/objectDefinition.ts&#45;&gt;base/objectCreator.ts -->
<g id="edge20" class="edge"><title>base/objectDefinition.ts&#45;&gt;base/objectCreator.ts</title>
<path fill="none" stroke="#757575" d="M1816.84,-1008.32C1856.62,-1035.08 1956.62,-1102.33 2003.72,-1134"/>
<polygon fill="#757575" stroke="#757575" points="2001.89,-1136.98 2012.14,-1139.66 2005.79,-1131.17 2001.89,-1136.98"/>
</g>
<!-- base/objectDefinition.ts&#45;&gt;base/scope.ts -->
<g id="edge21" class="edge"><title>base/objectDefinition.ts&#45;&gt;base/scope.ts</title>
<path fill="none" stroke="#757575" d="M1846.07,-1008.27C1882.51,-1017.18 1933.58,-1029.66 1972.49,-1039.18"/>
<polygon fill="#757575" stroke="#757575" points="1972.07,-1042.68 1982.62,-1041.66 1973.73,-1035.88 1972.07,-1042.68"/>
</g>
<!-- base/resource.ts -->
<g id="node18" class="node"><title>base/resource.ts</title>
<path fill="none" stroke="#c6c5fe" d="M1257.33,-488.5C1257.33,-488.5 1152.67,-488.5 1152.67,-488.5 1148.83,-488.5 1145,-484.667 1145,-480.833 1145,-480.833 1145,-473.167 1145,-473.167 1145,-469.333 1148.83,-465.5 1152.67,-465.5 1152.67,-465.5 1257.33,-465.5 1257.33,-465.5 1261.17,-465.5 1265,-469.333 1265,-473.167 1265,-473.167 1265,-480.833 1265,-480.833 1265,-484.667 1261.17,-488.5 1257.33,-488.5"/>
<text text-anchor="middle" x="1205" y="-473.3" font-family="Arial" font-size="14.00" fill="#c6c5fe">base/resource.ts</text>
</g>
<!-- base/resource.ts&#45;&gt;interfaces.ts -->
<g id="edge23" class="edge"><title>base/resource.ts&#45;&gt;interfaces.ts</title>
<path fill="none" stroke="#757575" d="M1265.27,-475.796C1446.81,-473.258 1991.13,-474.542 2128,-577 2203.14,-633.246 2223.8,-754.398 2229.19,-803.587"/>
<polygon fill="#757575" stroke="#757575" points="2225.73,-804.101 2230.2,-813.708 2232.69,-803.411 2225.73,-804.101"/>
</g>
<!-- factory/applicationContext.ts -->
<g id="node19" class="node"><title>factory/applicationContext.ts</title>
<path fill="none" stroke="#c6c5fe" d="M1293.33,-343.5C1293.33,-343.5 1116.67,-343.5 1116.67,-343.5 1112.83,-343.5 1109,-339.667 1109,-335.833 1109,-335.833 1109,-328.167 1109,-328.167 1109,-324.333 1112.83,-320.5 1116.67,-320.5 1116.67,-320.5 1293.33,-320.5 1293.33,-320.5 1297.17,-320.5 1301,-324.333 1301,-328.167 1301,-328.167 1301,-335.833 1301,-335.833 1301,-339.667 1297.17,-343.5 1293.33,-343.5"/>
<text text-anchor="middle" x="1205" y="-328.3" font-family="Arial" font-size="14.00" fill="#c6c5fe">factory/applicationContext.ts</text>
</g>
<!-- factory/applicationContext.ts&#45;&gt;interfaces.ts -->
<g id="edge26" class="edge"><title>factory/applicationContext.ts&#45;&gt;interfaces.ts</title>
<path fill="none" stroke="#757575" d="M1261.94,-320.696C1440.95,-285.896 1995.77,-189.114 2128,-298 2207.88,-363.781 2226.68,-711.799 2230.26,-803.069"/>
<polygon fill="#757575" stroke="#757575" points="2226.77,-803.465 2230.64,-813.328 2233.77,-803.205 2226.77,-803.465"/>
</g>
<!-- factory/applicationContext.ts&#45;&gt;base/configuration.ts -->
<g id="edge24" class="edge"><title>factory/applicationContext.ts&#45;&gt;base/configuration.ts</title>
<path fill="none" stroke="#757575" d="M1301.33,-323.867C1323.83,-322.268 1347.75,-320.83 1370,-320 1577.4,-312.265 1821.76,-314.99 1946.57,-317.235"/>
<polygon fill="#757575" stroke="#757575" points="1946.74,-320.738 1956.81,-317.423 1946.87,-313.74 1946.74,-320.738"/>
</g>
<!-- factory/common/managedResolverFactory.ts -->
<g id="node20" class="node"><title>factory/common/managedResolverFactory.ts</title>
<path fill="none" stroke="#c6c5fe" d="M1657.83,-352.5C1657.83,-352.5 1378.17,-352.5 1378.17,-352.5 1374.33,-352.5 1370.5,-348.667 1370.5,-344.833 1370.5,-344.833 1370.5,-337.167 1370.5,-337.167 1370.5,-333.333 1374.33,-329.5 1378.17,-329.5 1378.17,-329.5 1657.83,-329.5 1657.83,-329.5 1661.67,-329.5 1665.5,-333.333 1665.5,-337.167 1665.5,-337.167 1665.5,-344.833 1665.5,-344.833 1665.5,-348.667 1661.67,-352.5 1657.83,-352.5"/>
<text text-anchor="middle" x="1518" y="-337.3" font-family="Arial" font-size="14.00" fill="#c6c5fe">factory/common/managedResolverFactory.ts</text>
</g>
<!-- factory/applicationContext.ts&#45;&gt;factory/common/managedResolverFactory.ts -->
<g id="edge25" class="edge"><title>factory/applicationContext.ts&#45;&gt;factory/common/managedResolverFactory.ts</title>
<path fill="none" stroke="#757575" d="M1301,-334.749C1319.8,-335.293 1339.99,-335.878 1360.21,-336.463"/>
<polygon fill="#757575" stroke="#757575" points="1360.36,-339.968 1370.46,-336.759 1360.56,-332.971 1360.36,-339.968"/>
</g>
<!-- utils/errorFactory.ts -->
<g id="node21" class="node"><title>utils/errorFactory.ts</title>
<path fill="none" stroke="#c6c5fe" d="M1859.33,-410.5C1859.33,-410.5 1738.67,-410.5 1738.67,-410.5 1734.83,-410.5 1731,-406.667 1731,-402.833 1731,-402.833 1731,-395.167 1731,-395.167 1731,-391.333 1734.83,-387.5 1738.67,-387.5 1738.67,-387.5 1859.33,-387.5 1859.33,-387.5 1863.17,-387.5 1867,-391.333 1867,-395.167 1867,-395.167 1867,-402.833 1867,-402.833 1867,-406.667 1863.17,-410.5 1859.33,-410.5"/>
<text text-anchor="middle" x="1799" y="-395.3" font-family="Arial" font-size="14.00" fill="#c6c5fe">utils/errorFactory.ts</text>
</g>
<!-- factory/applicationContext.ts&#45;&gt;utils/errorFactory.ts -->
<g id="edge27" class="edge"><title>factory/applicationContext.ts&#45;&gt;utils/errorFactory.ts</title>
<path fill="none" stroke="#757575" d="M1262.74,-343.279C1294.23,-349.225 1334.17,-356.251 1370,-361 1492.05,-377.178 1634.62,-388.29 1720.52,-394.144"/>
<polygon fill="#757575" stroke="#757575" points="1720.5,-397.651 1730.71,-394.832 1720.97,-390.667 1720.5,-397.651"/>
</g>
<!-- factory/common/managedResolverFactory.ts&#45;&gt;interfaces.ts -->
<g id="edge37" class="edge"><title>factory/common/managedResolverFactory.ts&#45;&gt;interfaces.ts</title>
<path fill="none" stroke="#757575" d="M1665.53,-344.301C1840.09,-348.881 2110.53,-358.3 2128,-373 2195.49,-429.799 2222.92,-720.695 2229.41,-803.175"/>
<polygon fill="#757575" stroke="#757575" points="2225.94,-803.68 2230.19,-813.384 2232.92,-803.147 2225.94,-803.68"/>
</g>
<!-- factory/common/managedResolverFactory.ts&#45;&gt;base/configuration.ts -->
<g id="edge33" class="edge"><title>factory/common/managedResolverFactory.ts&#45;&gt;base/configuration.ts</title>
<path fill="none" stroke="#757575" d="M1665.83,-334.666C1757.03,-330.732 1870.89,-325.821 1946.56,-322.556"/>
<polygon fill="#757575" stroke="#757575" points="1947.14,-326.035 1956.98,-322.107 1946.83,-319.041 1947.14,-326.035"/>
</g>
<!-- factory/common/managedResolverFactory.ts&#45;&gt;utils/lodashWrap.ts -->
<g id="edge39" class="edge"><title>factory/common/managedResolverFactory.ts&#45;&gt;utils/lodashWrap.ts</title>
<path fill="none" stroke="#757575" d="M1553.82,-329.702C1671.65,-291.476 2055.29,-167.008 2186.51,-124.434"/>
<polygon fill="#757575" stroke="#757575" points="2187.81,-127.692 2196.24,-121.276 2185.65,-121.033 2187.81,-127.692"/>
</g>
<!-- factory/common/managedResolverFactory.ts&#45;&gt;utils/errorFactory.ts -->
<g id="edge38" class="edge"><title>factory/common/managedResolverFactory.ts&#45;&gt;utils/errorFactory.ts</title>
<path fill="none" stroke="#757575" d="M1573.12,-352.252C1619.08,-361.806 1685.13,-375.536 1733.76,-385.645"/>
<polygon fill="#757575" stroke="#757575" points="1733.05,-389.072 1743.55,-387.681 1734.47,-382.219 1733.05,-389.072"/>
</g>
<!-- factory/common/autowire.ts -->
<g id="node22" class="node"><title>factory/common/autowire.ts</title>
<path fill="none" stroke="#c6c5fe" d="M1885.33,-102.5C1885.33,-102.5 1712.67,-102.5 1712.67,-102.5 1708.83,-102.5 1705,-98.6667 1705,-94.8333 1705,-94.8333 1705,-87.1667 1705,-87.1667 1705,-83.3333 1708.83,-79.5 1712.67,-79.5 1712.67,-79.5 1885.33,-79.5 1885.33,-79.5 1889.17,-79.5 1893,-83.3333 1893,-87.1667 1893,-87.1667 1893,-94.8333 1893,-94.8333 1893,-98.6667 1889.17,-102.5 1885.33,-102.5"/>
<text text-anchor="middle" x="1799" y="-87.3" font-family="Arial" font-size="14.00" fill="#c6c5fe">factory/common/autowire.ts</text>
</g>
<!-- factory/common/managedResolverFactory.ts&#45;&gt;factory/common/autowire.ts -->
<g id="edge34" class="edge"><title>factory/common/managedResolverFactory.ts&#45;&gt;factory/common/autowire.ts</title>
<path fill="none" stroke="#757575" d="M1531.71,-329.608C1575.92,-289.994 1723.22,-158.01 1777.6,-109.281"/>
<polygon fill="#757575" stroke="#757575" points="1780.1,-111.739 1785.21,-102.459 1775.43,-106.525 1780.1,-111.739"/>
</g>
<!-- factory/common/constants.ts -->
<g id="node23" class="node"><title>factory/common/constants.ts</title>
<path fill="none" stroke="#cfffac" d="M2119.83,-776.5C2119.83,-776.5 1940.17,-776.5 1940.17,-776.5 1936.33,-776.5 1932.5,-772.667 1932.5,-768.833 1932.5,-768.833 1932.5,-761.167 1932.5,-761.167 1932.5,-757.333 1936.33,-753.5 1940.17,-753.5 1940.17,-753.5 2119.83,-753.5 2119.83,-753.5 2123.67,-753.5 2127.5,-757.333 2127.5,-761.167 2127.5,-761.167 2127.5,-768.833 2127.5,-768.833 2127.5,-772.667 2123.67,-776.5 2119.83,-776.5"/>
<text text-anchor="middle" x="2030" y="-761.3" font-family="Arial" font-size="14.00" fill="#cfffac">factory/common/constants.ts</text>
</g>
<!-- factory/common/managedResolverFactory.ts&#45;&gt;factory/common/constants.ts -->
<g id="edge35" class="edge"><title>factory/common/managedResolverFactory.ts&#45;&gt;factory/common/constants.ts</title>
<path fill="none" stroke="#757575" d="M1532.64,-352.341C1602.55,-410.459 1920.7,-674.96 2007.22,-746.894"/>
<polygon fill="#757575" stroke="#757575" points="2005.15,-749.724 2015.08,-753.425 2009.63,-744.341 2005.15,-749.724"/>
</g>
<!-- factory/common/managed.ts -->
<g id="node24" class="node"><title>factory/common/managed.ts</title>
<path fill="none" stroke="#c6c5fe" d="M1887.83,-836.5C1887.83,-836.5 1710.17,-836.5 1710.17,-836.5 1706.33,-836.5 1702.5,-832.667 1702.5,-828.833 1702.5,-828.833 1702.5,-821.167 1702.5,-821.167 1702.5,-817.333 1706.33,-813.5 1710.17,-813.5 1710.17,-813.5 1887.83,-813.5 1887.83,-813.5 1891.67,-813.5 1895.5,-817.333 1895.5,-821.167 1895.5,-821.167 1895.5,-828.833 1895.5,-828.833 1895.5,-832.667 1891.67,-836.5 1887.83,-836.5"/>
<text text-anchor="middle" x="1799" y="-821.3" font-family="Arial" font-size="14.00" fill="#c6c5fe">factory/common/managed.ts</text>
</g>
<!-- factory/common/managedResolverFactory.ts&#45;&gt;factory/common/managed.ts -->
<g id="edge36" class="edge"><title>factory/common/managedResolverFactory.ts&#45;&gt;factory/common/managed.ts</title>
<path fill="none" stroke="#757575" d="M1528.75,-352.556C1555.38,-384.784 1629.8,-479.319 1666,-571 1698.21,-652.565 1652.64,-692.516 1702,-765 1715.56,-784.914 1738.15,-799.515 1758.01,-809.324"/>
<polygon fill="#757575" stroke="#757575" points="1756.65,-812.553 1767.19,-813.626 1759.62,-806.214 1756.65,-812.553"/>
</g>
<!-- utils/errorFactory.ts&#45;&gt;interfaces.ts -->
<g id="edge96" class="edge"><title>utils/errorFactory.ts&#45;&gt;interfaces.ts</title>
<path fill="none" stroke="#757575" d="M1845.28,-387.73C1914.75,-373.356 2047.98,-357.742 2128,-425 2187.53,-475.03 2220.12,-727.352 2228.69,-803.324"/>
<polygon fill="#757575" stroke="#757575" points="2225.24,-804.023 2229.82,-813.579 2232.2,-803.256 2225.24,-804.023"/>
</g>
<!-- factory/common/autowire.ts&#45;&gt;interfaces.ts -->
<g id="edge28" class="edge"><title>factory/common/autowire.ts&#45;&gt;interfaces.ts</title>
<path fill="none" stroke="#757575" d="M1864.6,-102.292C1949.97,-118.569 2093.6,-151.098 2128,-191 2209.95,-286.043 2227.42,-704.042 2230.44,-803.641"/>
<polygon fill="#757575" stroke="#757575" points="2226.94,-803.806 2230.73,-813.702 2233.94,-803.605 2226.94,-803.806"/>
</g>
<!-- factory/common/autowire.ts&#45;&gt;utils/lodashWrap.ts -->
<g id="edge29" class="edge"><title>factory/common/autowire.ts&#45;&gt;utils/lodashWrap.ts</title>
<path fill="none" stroke="#757575" d="M1893.26,-95.111C1971.27,-98.5501 2081.22,-103.397 2154.22,-106.615"/>
<polygon fill="#757575" stroke="#757575" points="2154.13,-110.115 2164.27,-107.058 2154.44,-103.121 2154.13,-110.115"/>
</g>
<!-- factory/common/managed.ts&#45;&gt;interfaces.ts -->
<g id="edge32" class="edge"><title>factory/common/managed.ts&#45;&gt;interfaces.ts</title>
<path fill="none" stroke="#757575" d="M1895.65,-825C1981.69,-825 2105.11,-825 2175.74,-825"/>
<polygon fill="#757575" stroke="#757575" points="2175.77,-828.5 2185.77,-825 2175.77,-821.5 2175.77,-828.5"/>
</g>
<!-- factory/common/managed.ts&#45;&gt;base/configuration.ts -->
<g id="edge30" class="edge"><title>factory/common/managed.ts&#45;&gt;base/configuration.ts</title>
<path fill="none" stroke="#757575" d="M1828.75,-813.727C1850.23,-803.908 1878.73,-787.67 1896,-765 2000.59,-627.704 2023.24,-409.008 2027.87,-340.344"/>
<polygon fill="#757575" stroke="#757575" points="2031.37,-340.508 2028.49,-330.312 2024.38,-340.078 2031.37,-340.508"/>
</g>
<!-- factory/common/managed.ts&#45;&gt;factory/common/constants.ts -->
<g id="edge31" class="edge"><title>factory/common/managed.ts&#45;&gt;factory/common/constants.ts</title>
<path fill="none" stroke="#757575" d="M1843.07,-813.714C1880.7,-803.857 1935.45,-789.511 1975.8,-778.938"/>
<polygon fill="#757575" stroke="#757575" points="1976.94,-782.257 1985.73,-776.337 1975.17,-775.486 1976.94,-782.257"/>
</g>
<!-- factory/container.ts -->
<g id="node25" class="node"><title>factory/container.ts</title>
<path fill="none" stroke="#c6c5fe" d="M451.833,-1180.5C451.833,-1180.5 332.167,-1180.5 332.167,-1180.5 328.333,-1180.5 324.5,-1176.67 324.5,-1172.83 324.5,-1172.83 324.5,-1165.17 324.5,-1165.17 324.5,-1161.33 328.333,-1157.5 332.167,-1157.5 332.167,-1157.5 451.833,-1157.5 451.833,-1157.5 455.667,-1157.5 459.5,-1161.33 459.5,-1165.17 459.5,-1165.17 459.5,-1172.83 459.5,-1172.83 459.5,-1176.67 455.667,-1180.5 451.833,-1180.5"/>
<text text-anchor="middle" x="392" y="-1165.3" font-family="Arial" font-size="14.00" fill="#c6c5fe">factory/container.ts</text>
</g>
<!-- factory/container.ts&#45;&gt;interfaces.ts -->
<g id="edge43" class="edge"><title>factory/container.ts&#45;&gt;interfaces.ts</title>
<path fill="none" stroke="#757575" d="M421.86,-1180.28C442.27,-1187.82 470.439,-1197.36 496,-1203 805.336,-1271.22 887.23,-1285 1204,-1285 1204,-1285 1204,-1285 1519,-1285 1586.89,-1285 2076.4,-1279.13 2128,-1235 2188.62,-1183.17 2220.55,-923.82 2228.81,-846.678"/>
<polygon fill="#757575" stroke="#757575" points="2232.34,-846.6 2229.9,-836.291 2225.37,-845.872 2232.34,-846.6"/>
</g>
<!-- factory/container.ts&#45;&gt;base/functionDefinition.ts -->
<g id="edge40" class="edge"><title>factory/container.ts&#45;&gt;base/functionDefinition.ts</title>
<path fill="none" stroke="#757575" d="M459.814,-1168.57C557.718,-1167.99 745.909,-1167 906,-1167 906,-1167 906,-1167 1206,-1167 1381.02,-1167 1585.14,-1167.88 1702.21,-1168.48"/>
<polygon fill="#757575" stroke="#757575" points="1702.2,-1171.98 1712.22,-1168.53 1702.24,-1164.98 1702.2,-1171.98"/>
</g>
<!-- factory/container.ts&#45;&gt;factory/common/managed.ts -->
<g id="edge41" class="edge"><title>factory/container.ts&#45;&gt;factory/common/managed.ts</title>
<path fill="none" stroke="#757575" d="M459.617,-1165.07C653.263,-1151.72 1229.93,-1098.18 1666,-915 1709,-896.935 1752.47,-863.766 1777.24,-843.132"/>
<polygon fill="#757575" stroke="#757575" points="1779.81,-845.536 1785.18,-836.402 1775.29,-840.194 1779.81,-845.536"/>
</g>
<!-- factory/xml/xmlApplicationContext.ts -->
<g id="node26" class="node"><title>factory/xml/xmlApplicationContext.ts</title>
<path fill="none" stroke="#c6c5fe" d="M729.833,-594.5C729.833,-594.5 504.167,-594.5 504.167,-594.5 500.333,-594.5 496.5,-590.667 496.5,-586.833 496.5,-586.833 496.5,-579.167 496.5,-579.167 496.5,-575.333 500.333,-571.5 504.167,-571.5 504.167,-571.5 729.833,-571.5 729.833,-571.5 733.667,-571.5 737.5,-575.333 737.5,-579.167 737.5,-579.167 737.5,-586.833 737.5,-586.833 737.5,-590.667 733.667,-594.5 729.833,-594.5"/>
<text text-anchor="middle" x="617" y="-579.3" font-family="Arial" font-size="14.00" fill="#c6c5fe">factory/xml/xmlApplicationContext.ts</text>
</g>
<!-- factory/container.ts&#45;&gt;factory/xml/xmlApplicationContext.ts -->
<g id="edge42" class="edge"><title>factory/container.ts&#45;&gt;factory/xml/xmlApplicationContext.ts</title>
<path fill="none" stroke="#757575" d="M397.355,-1157.56C424.637,-1085.87 572.029,-698.547 608.053,-603.883"/>
<polygon fill="#757575" stroke="#757575" points="611.423,-604.868 611.709,-594.277 604.881,-602.378 611.423,-604.868"/>
</g>
<!-- utils/reflectTool.ts -->
<g id="node27" class="node"><title>utils/reflectTool.ts</title>
<path fill="none" stroke="#c6c5fe" d="M961.833,-1218.5C961.833,-1218.5 852.167,-1218.5 852.167,-1218.5 848.333,-1218.5 844.5,-1214.67 844.5,-1210.83 844.5,-1210.83 844.5,-1203.17 844.5,-1203.17 844.5,-1199.33 848.333,-1195.5 852.167,-1195.5 852.167,-1195.5 961.833,-1195.5 961.833,-1195.5 965.667,-1195.5 969.5,-1199.33 969.5,-1203.17 969.5,-1203.17 969.5,-1210.83 969.5,-1210.83 969.5,-1214.67 965.667,-1218.5 961.833,-1218.5"/>
<text text-anchor="middle" x="907" y="-1203.3" font-family="Arial" font-size="14.00" fill="#c6c5fe">utils/reflectTool.ts</text>
</g>
<!-- factory/container.ts&#45;&gt;utils/reflectTool.ts -->
<g id="edge44" class="edge"><title>factory/container.ts&#45;&gt;utils/reflectTool.ts</title>
<path fill="none" stroke="#757575" d="M459.712,-1177.29C471.778,-1178.64 484.255,-1179.94 496,-1181 614.364,-1191.64 752.339,-1199.44 834.253,-1203.6"/>
<polygon fill="#757575" stroke="#757575" points="834.287,-1207.1 844.45,-1204.11 834.638,-1200.11 834.287,-1207.1"/>
</g>
<!-- factory/xml/xmlApplicationContext.ts&#45;&gt;interfaces.ts -->
<g id="edge52" class="edge"><title>factory/xml/xmlApplicationContext.ts&#45;&gt;interfaces.ts</title>
<path fill="none" stroke="#757575" d="M635.921,-571.547C664.125,-554.082 721.12,-521.031 774,-504 903.298,-462.358 940.567,-467.476 1076,-457 1309.36,-438.95 1946.62,-360.081 2128,-508 2221.12,-583.943 2230.94,-745.261 2231.33,-803.48"/>
<polygon fill="#757575" stroke="#757575" points="2227.83,-803.685 2231.3,-813.694 2234.83,-803.703 2227.83,-803.685"/>
</g>
<!-- factory/xml/xmlApplicationContext.ts&#45;&gt;base/resource.ts -->
<g id="edge49" class="edge"><title>factory/xml/xmlApplicationContext.ts&#45;&gt;base/resource.ts</title>
<path fill="none" stroke="#757575" d="M680.435,-571.706C790.791,-551.744 1019.51,-510.372 1134.63,-489.549"/>
<polygon fill="#757575" stroke="#757575" points="1135.51,-492.945 1144.73,-487.721 1134.27,-486.057 1135.51,-492.945"/>
</g>
<!-- factory/xml/xmlApplicationContext.ts&#45;&gt;factory/applicationContext.ts -->
<g id="edge50" class="edge"><title>factory/xml/xmlApplicationContext.ts&#45;&gt;factory/applicationContext.ts</title>
<path fill="none" stroke="#757575" d="M625.516,-571.485C645.639,-541.661 703.991,-461.547 774,-423 875.475,-367.128 1007.81,-345.52 1098.72,-337.186"/>
<polygon fill="#757575" stroke="#757575" points="1099.11,-340.666 1108.77,-336.304 1098.5,-333.693 1099.11,-340.666"/>
</g>
<!-- factory/xml/xmlObjectDefinitionParser.ts -->
<g id="node31" class="node"><title>factory/xml/xmlObjectDefinitionParser.ts</title>
<path fill="none" stroke="#c6c5fe" d="M1031.83,-642.5C1031.83,-642.5 782.167,-642.5 782.167,-642.5 778.333,-642.5 774.5,-638.667 774.5,-634.833 774.5,-634.833 774.5,-627.167 774.5,-627.167 774.5,-623.333 778.333,-619.5 782.167,-619.5 782.167,-619.5 1031.83,-619.5 1031.83,-619.5 1035.67,-619.5 1039.5,-623.333 1039.5,-627.167 1039.5,-627.167 1039.5,-634.833 1039.5,-634.833 1039.5,-638.667 1035.67,-642.5 1031.83,-642.5"/>
<text text-anchor="middle" x="907" y="-627.3" font-family="Arial" font-size="14.00" fill="#c6c5fe">factory/xml/xmlObjectDefinitionParser.ts</text>
</g>
<!-- factory/xml/xmlApplicationContext.ts&#45;&gt;factory/xml/xmlObjectDefinitionParser.ts -->
<g id="edge51" class="edge"><title>factory/xml/xmlApplicationContext.ts&#45;&gt;factory/xml/xmlObjectDefinitionParser.ts</title>
<path fill="none" stroke="#757575" d="M685.523,-594.254C728.339,-601.39 783.861,-610.643 828.476,-618.079"/>
<polygon fill="#757575" stroke="#757575" points="827.962,-621.542 838.401,-619.734 829.113,-614.637 827.962,-621.542"/>
</g>
<!-- utils/reflectTool.ts&#45;&gt;interfaces.ts -->
<g id="edge99" class="edge"><title>utils/reflectTool.ts&#45;&gt;interfaces.ts</title>
<path fill="none" stroke="#757575" d="M969.88,-1211.37C1205.6,-1227.39 2038.62,-1278.3 2128,-1204 2184.49,-1157.04 2218.85,-920.631 2228.32,-846.957"/>
<polygon fill="#757575" stroke="#757575" points="2231.85,-846.943 2229.63,-836.584 2224.9,-846.069 2231.85,-846.943"/>
</g>
<!-- factory/requestContainer.ts -->
<g id="node28" class="node"><title>factory/requestContainer.ts</title>
<path fill="none" stroke="#c6c5fe" d="M279.833,-1140.5C279.833,-1140.5 110.167,-1140.5 110.167,-1140.5 106.333,-1140.5 102.5,-1136.67 102.5,-1132.83 102.5,-1132.83 102.5,-1125.17 102.5,-1125.17 102.5,-1121.33 106.333,-1117.5 110.167,-1117.5 110.167,-1117.5 279.833,-1117.5 279.833,-1117.5 283.667,-1117.5 287.5,-1121.33 287.5,-1125.17 287.5,-1125.17 287.5,-1132.83 287.5,-1132.83 287.5,-1136.67 283.667,-1140.5 279.833,-1140.5"/>
<text text-anchor="middle" x="195" y="-1125.3" font-family="Arial" font-size="14.00" fill="#c6c5fe">factory/requestContainer.ts</text>
</g>
<!-- factory/requestContainer.ts&#45;&gt;interfaces.ts -->
<g id="edge46" class="edge"><title>factory/requestContainer.ts&#45;&gt;interfaces.ts</title>
<path fill="none" stroke="#757575" d="M287.763,-1129C372.851,-1129 502.979,-1129 616,-1129 616,-1129 616,-1129 1519,-1129 1654.9,-1129 2018.54,-1153.55 2128,-1073 2203.59,-1017.37 2223.99,-895.865 2229.26,-846.497"/>
<polygon fill="#757575" stroke="#757575" points="2232.76,-846.627 2230.23,-836.338 2225.79,-845.959 2232.76,-846.627"/>
</g>
<!-- factory/requestContainer.ts&#45;&gt;factory/container.ts -->
<g id="edge45" class="edge"><title>factory/requestContainer.ts&#45;&gt;factory/container.ts</title>
<path fill="none" stroke="#757575" d="M251.097,-1140.3C274.458,-1145.09 301.852,-1150.71 326.178,-1155.7"/>
<polygon fill="#757575" stroke="#757575" points="325.539,-1159.15 336.039,-1157.73 326.946,-1152.29 325.539,-1159.15"/>
</g>
<!-- factory/xml/interface.ts -->
<g id="node29" class="node"><title>factory/xml/interface.ts</title>
<path fill="none" stroke="#c6c5fe" d="M1588.83,-602.5C1588.83,-602.5 1447.17,-602.5 1447.17,-602.5 1443.33,-602.5 1439.5,-598.667 1439.5,-594.833 1439.5,-594.833 1439.5,-587.167 1439.5,-587.167 1439.5,-583.333 1443.33,-579.5 1447.17,-579.5 1447.17,-579.5 1588.83,-579.5 1588.83,-579.5 1592.67,-579.5 1596.5,-583.333 1596.5,-587.167 1596.5,-587.167 1596.5,-594.833 1596.5,-594.833 1596.5,-598.667 1592.67,-602.5 1588.83,-602.5"/>
<text text-anchor="middle" x="1518" y="-587.3" font-family="Arial" font-size="14.00" fill="#c6c5fe">factory/xml/interface.ts</text>
</g>
<!-- factory/xml/interface.ts&#45;&gt;interfaces.ts -->
<g id="edge47" class="edge"><title>factory/xml/interface.ts&#45;&gt;interfaces.ts</title>
<path fill="none" stroke="#757575" d="M1596.7,-597.052C1755.86,-609.702 2105.87,-638.932 2128,-653 2183.87,-688.524 2213.58,-766.222 2225.16,-803.805"/>
<polygon fill="#757575" stroke="#757575" points="2221.89,-805.078 2228.07,-813.683 2228.6,-803.102 2221.89,-805.078"/>
</g>
<!-- factory/xml/utils.ts -->
<g id="node30" class="node"><title>factory/xml/utils.ts</title>
<path fill="none" stroke="#c6c5fe" d="M1855.33,-756.5C1855.33,-756.5 1742.67,-756.5 1742.67,-756.5 1738.83,-756.5 1735,-752.667 1735,-748.833 1735,-748.833 1735,-741.167 1735,-741.167 1735,-737.333 1738.83,-733.5 1742.67,-733.5 1742.67,-733.5 1855.33,-733.5 1855.33,-733.5 1859.17,-733.5 1863,-737.333 1863,-741.167 1863,-741.167 1863,-748.833 1863,-748.833 1863,-752.667 1859.17,-756.5 1855.33,-756.5"/>
<text text-anchor="middle" x="1799" y="-741.3" font-family="Arial" font-size="14.00" fill="#c6c5fe">factory/xml/utils.ts</text>
</g>
<!-- factory/xml/utils.ts&#45;&gt;factory/common/constants.ts -->
<g id="edge48" class="edge"><title>factory/xml/utils.ts&#45;&gt;factory/common/constants.ts</title>
<path fill="none" stroke="#757575" d="M1863.18,-750.518C1881.42,-752.111 1901.84,-753.894 1921.95,-755.651"/>
<polygon fill="#757575" stroke="#757575" points="1921.84,-759.155 1932.11,-756.538 1922.45,-752.181 1921.84,-759.155"/>
</g>
<!-- factory/xml/xmlObjectDefinitionParser.ts&#45;&gt;interfaces.ts -->
<g id="edge64" class="edge"><title>factory/xml/xmlObjectDefinitionParser.ts&#45;&gt;interfaces.ts</title>
<path fill="none" stroke="#757575" d="M956.272,-619.743C989.715,-612.311 1035.36,-602.891 1076,-597 1307.43,-563.456 1935.74,-488.883 2128,-622 2191.37,-665.874 2217.96,-760.713 2227.04,-803.403"/>
<polygon fill="#757575" stroke="#757575" points="2223.62,-804.181 2229.02,-813.298 2230.49,-802.805 2223.62,-804.181"/>
</g>
<!-- factory/xml/xmlObjectDefinitionParser.ts&#45;&gt;base/configuration.ts -->
<g id="edge57" class="edge"><title>factory/xml/xmlObjectDefinitionParser.ts&#45;&gt;base/configuration.ts</title>
<path fill="none" stroke="#757575" d="M924.764,-619.462C954.025,-599.925 1016.95,-560.553 1076,-541 1250.89,-483.091 1726.04,-490.096 1896,-419 1942.21,-399.668 1986.84,-360.646 2010.83,-337.477"/>
<polygon fill="#757575" stroke="#757575" points="2013.47,-339.787 2018.15,-330.279 2008.56,-334.797 2013.47,-339.787"/>
</g>
<!-- factory/xml/xmlObjectDefinitionParser.ts&#45;&gt;base/resource.ts -->
<g id="edge58" class="edge"><title>factory/xml/xmlObjectDefinitionParser.ts&#45;&gt;base/resource.ts</title>
<path fill="none" stroke="#757575" d="M931.058,-619.568C958.723,-605.19 1005.67,-578.644 1040,-548 1059.11,-530.945 1054.14,-516.349 1076,-503 1093.55,-492.283 1114.73,-485.896 1134.76,-482.117"/>
<polygon fill="#757575" stroke="#757575" points="1135.52,-485.538 1144.79,-480.416 1134.35,-478.637 1135.52,-485.538"/>
</g>
<!-- factory/xml/xmlObjectDefinitionParser.ts&#45;&gt;factory/common/constants.ts -->
<g id="edge59" class="edge"><title>factory/xml/xmlObjectDefinitionParser.ts&#45;&gt;factory/common/constants.ts</title>
<path fill="none" stroke="#757575" d="M1039.68,-632.281C1230.79,-636.66 1595.08,-654.522 1896,-725 1926.36,-732.111 1959.99,-742.246 1985.84,-750.535"/>
<polygon fill="#757575" stroke="#757575" points="1985.1,-753.975 1995.69,-753.727 1987.26,-747.316 1985.1,-753.975"/>
</g>
<!-- factory/xml/xmlObjectDefinitionParser.ts&#45;&gt;factory/xml/interface.ts -->
<g id="edge60" class="edge"><title>factory/xml/xmlObjectDefinitionParser.ts&#45;&gt;factory/xml/interface.ts</title>
<path fill="none" stroke="#757575" d="M1039.58,-619.728C1051.89,-618.766 1064.18,-617.841 1076,-617 1198.47,-608.288 1340.21,-600.305 1429.24,-595.546"/>
<polygon fill="#757575" stroke="#757575" points="1429.49,-599.038 1439.29,-595.01 1429.12,-592.047 1429.49,-599.038"/>
</g>
<!-- factory/xml/xmlObjectDefinitionParser.ts&#45;&gt;factory/xml/utils.ts -->
<g id="edge61" class="edge"><title>factory/xml/xmlObjectDefinitionParser.ts&#45;&gt;factory/xml/utils.ts</title>
<path fill="none" stroke="#757575" d="M996.181,-642.295C1171.7,-664.778 1561.88,-714.755 1724.56,-735.593"/>
<polygon fill="#757575" stroke="#757575" points="1724.58,-739.124 1734.94,-736.923 1725.47,-732.18 1724.58,-739.124"/>
</g>
<!-- factory/xml/xmlObjectDefinition.ts -->
<g id="node32" class="node"><title>factory/xml/xmlObjectDefinition.ts</title>
<path fill="none" stroke="#c6c5fe" d="M1621.83,-872.5C1621.83,-872.5 1414.17,-872.5 1414.17,-872.5 1410.33,-872.5 1406.5,-868.667 1406.5,-864.833 1406.5,-864.833 1406.5,-857.167 1406.5,-857.167 1406.5,-853.333 1410.33,-849.5 1414.17,-849.5 1414.17,-849.5 1621.83,-849.5 1621.83,-849.5 1625.67,-849.5 1629.5,-853.333 1629.5,-857.167 1629.5,-857.167 1629.5,-864.833 1629.5,-864.833 1629.5,-868.667 1625.67,-872.5 1621.83,-872.5"/>
<text text-anchor="middle" x="1518" y="-857.3" font-family="Arial" font-size="14.00" fill="#c6c5fe">factory/xml/xmlObjectDefinition.ts</text>
</g>
<!-- factory/xml/xmlObjectDefinitionParser.ts&#45;&gt;factory/xml/xmlObjectDefinition.ts -->
<g id="edge62" class="edge"><title>factory/xml/xmlObjectDefinitionParser.ts&#45;&gt;factory/xml/xmlObjectDefinition.ts</title>
<path fill="none" stroke="#757575" d="M917.639,-642.287C941.44,-669.33 1006.15,-737.96 1076,-770 1181.73,-818.498 1221.89,-782.984 1334,-814 1350.55,-818.577 1353.58,-822.995 1370,-828 1394.85,-835.574 1422.54,-842.238 1447.13,-847.558"/>
<polygon fill="#757575" stroke="#757575" points="1446.59,-851.022 1457.1,-849.68 1448.05,-844.175 1446.59,-851.022"/>
</g>
<!-- factory/xml/xmlObjectElementParser.ts -->
<g id="node33" class="node"><title>factory/xml/xmlObjectElementParser.ts</title>
<path fill="none" stroke="#c6c5fe" d="M1326.33,-761.5C1326.33,-761.5 1083.67,-761.5 1083.67,-761.5 1079.83,-761.5 1076,-757.667 1076,-753.833 1076,-753.833 1076,-746.167 1076,-746.167 1076,-742.333 1079.83,-738.5 1083.67,-738.5 1083.67,-738.5 1326.33,-738.5 1326.33,-738.5 1330.17,-738.5 1334,-742.333 1334,-746.167 1334,-746.167 1334,-753.833 1334,-753.833 1334,-757.667 1330.17,-761.5 1326.33,-761.5"/>
<text text-anchor="middle" x="1205" y="-746.3" font-family="Arial" font-size="14.00" fill="#c6c5fe">factory/xml/xmlObjectElementParser.ts</text>
</g>
<!-- factory/xml/xmlObjectDefinitionParser.ts&#45;&gt;factory/xml/xmlObjectElementParser.ts -->
<g id="edge63" class="edge"><title>factory/xml/xmlObjectDefinitionParser.ts&#45;&gt;factory/xml/xmlObjectElementParser.ts</title>
<path fill="none" stroke="#757575" d="M923.255,-642.523C951.665,-663.361 1015.31,-707.168 1076,-729 1083.84,-731.822 1092.09,-734.267 1100.47,-736.384"/>
<polygon fill="#757575" stroke="#757575" points="1099.81,-739.824 1110.35,-738.723 1101.42,-733.013 1099.81,-739.824"/>
</g>
<!-- utils/xmldomWrap.ts -->
<g id="node34" class="node"><title>utils/xmldomWrap.ts</title>
<path fill="none" stroke="#cfffac" d="M1268.83,-720.5C1268.83,-720.5 1141.17,-720.5 1141.17,-720.5 1137.33,-720.5 1133.5,-716.667 1133.5,-712.833 1133.5,-712.833 1133.5,-705.167 1133.5,-705.167 1133.5,-701.333 1137.33,-697.5 1141.17,-697.5 1141.17,-697.5 1268.83,-697.5 1268.83,-697.5 1272.67,-697.5 1276.5,-701.333 1276.5,-705.167 1276.5,-705.167 1276.5,-712.833 1276.5,-712.833 1276.5,-716.667 1272.67,-720.5 1268.83,-720.5"/>
<text text-anchor="middle" x="1205" y="-705.3" font-family="Arial" font-size="14.00" fill="#cfffac">utils/xmldomWrap.ts</text>
</g>
<!-- factory/xml/xmlObjectDefinitionParser.ts&#45;&gt;utils/xmldomWrap.ts -->
<g id="edge65" class="edge"><title>factory/xml/xmlObjectDefinitionParser.ts&#45;&gt;utils/xmldomWrap.ts</title>
<path fill="none" stroke="#757575" d="M941.189,-642.349C974.878,-653.613 1028.67,-670.901 1076,-683 1094.16,-687.642 1113.93,-691.996 1132.39,-695.765"/>
<polygon fill="#757575" stroke="#757575" points="1131.7,-699.197 1142.19,-697.739 1133.08,-692.334 1131.7,-699.197"/>
</g>
<!-- factory/xml/xmlObjectDefinition.ts&#45;&gt;interfaces.ts -->
<g id="edge56" class="edge"><title>factory/xml/xmlObjectDefinition.ts&#45;&gt;interfaces.ts</title>
<path fill="none" stroke="#757575" d="M1629.77,-860.287C1751.97,-858.735 1954.34,-853.902 2128,-839 2143.63,-837.658 2160.53,-835.613 2176.03,-833.497"/>
<polygon fill="#757575" stroke="#757575" points="2176.57,-836.956 2185.98,-832.102 2175.59,-830.023 2176.57,-836.956"/>
</g>
<!-- factory/xml/xmlObjectDefinition.ts&#45;&gt;base/scope.ts -->
<g id="edge54" class="edge"><title>factory/xml/xmlObjectDefinition.ts&#45;&gt;base/scope.ts</title>
<path fill="none" stroke="#757575" d="M1567.53,-872.274C1640.51,-890.038 1782.11,-927.659 1896,-977 1935.07,-993.928 1977.3,-1019.41 2003.45,-1036.13"/>
<polygon fill="#757575" stroke="#757575" points="2001.7,-1039.16 2012,-1041.65 2005.49,-1033.28 2001.7,-1039.16"/>
</g>
<!-- factory/xml/xmlObjectDefinition.ts&#45;&gt;base/objectDefinition.ts -->
<g id="edge53" class="edge"><title>factory/xml/xmlObjectDefinition.ts&#45;&gt;base/objectDefinition.ts</title>
<path fill="none" stroke="#757575" d="M1542.31,-872.361C1591.95,-896.561 1708.24,-953.248 1765.28,-981.052"/>
<polygon fill="#757575" stroke="#757575" points="1764.04,-984.34 1774.56,-985.575 1767.11,-978.047 1764.04,-984.34"/>
</g>
<!-- factory/xml/xmlObjectDefinition.ts&#45;&gt;factory/xml/utils.ts -->
<g id="edge55" class="edge"><title>factory/xml/xmlObjectDefinition.ts&#45;&gt;factory/xml/utils.ts</title>
<path fill="none" stroke="#757575" d="M1546.26,-849.666C1596.68,-828.703 1704.53,-783.861 1761.31,-760.255"/>
<polygon fill="#757575" stroke="#757575" points="1762.74,-763.451 1770.63,-756.38 1760.05,-756.987 1762.74,-763.451"/>
</g>
<!-- factory/xml/xmlObjectElementParser.ts&#45;&gt;interfaces.ts -->
<g id="edge72" class="edge"><title>factory/xml/xmlObjectElementParser.ts&#45;&gt;interfaces.ts</title>
<path fill="none" stroke="#757575" d="M1323.23,-738.714C1537.83,-719.8 1984.91,-688.975 2128,-745 2162.28,-758.422 2194.57,-787.067 2213.56,-806.183"/>
<polygon fill="#757575" stroke="#757575" points="2211.16,-808.729 2220.63,-813.477 2216.18,-803.859 2211.16,-808.729"/>
</g>
<!-- factory/xml/xmlObjectElementParser.ts&#45;&gt;base/scope.ts -->
<g id="edge66" class="edge"><title>factory/xml/xmlObjectElementParser.ts&#45;&gt;base/scope.ts</title>
<path fill="none" stroke="#757575" d="M1217.86,-761.496C1243.71,-786.068 1307.8,-844.438 1370,-881 1507.47,-961.802 1547.47,-977.671 1702,-1017 1792.89,-1040.13 1901.73,-1048.4 1968.09,-1051.36"/>
<polygon fill="#757575" stroke="#757575" points="1968.23,-1054.87 1978.36,-1051.79 1968.52,-1047.87 1968.23,-1054.87"/>
</g>
<!-- factory/xml/xmlObjectElementParser.ts&#45;&gt;factory/common/constants.ts -->
<g id="edge67" class="edge"><title>factory/xml/xmlObjectElementParser.ts&#45;&gt;factory/common/constants.ts</title>
<path fill="none" stroke="#757575" d="M1334.44,-759.291C1346.45,-759.956 1358.45,-760.543 1370,-761 1564.51,-768.689 1791.56,-767.924 1921.98,-766.547"/>
<polygon fill="#757575" stroke="#757575" points="1922.4,-770.042 1932.36,-766.434 1922.32,-763.043 1922.4,-770.042"/>
</g>
<!-- factory/xml/xmlObjectElementParser.ts&#45;&gt;factory/common/managed.ts -->
<g id="edge68" class="edge"><title>factory/xml/xmlObjectElementParser.ts&#45;&gt;factory/common/managed.ts</title>
<path fill="none" stroke="#757575" d="M1282.63,-761.308C1299.84,-765.012 1317.79,-769.82 1334,-776 1351.31,-782.599 1352.29,-791.584 1370,-797 1476.28,-829.493 1604.11,-833.616 1692.24,-831.404"/>
<polygon fill="#757575" stroke="#757575" points="1692.35,-834.903 1702.25,-831.122 1692.15,-827.905 1692.35,-834.903"/>
</g>
<!-- factory/xml/xmlObjectElementParser.ts&#45;&gt;factory/xml/interface.ts -->
<g id="edge69" class="edge"><title>factory/xml/xmlObjectElementParser.ts&#45;&gt;factory/xml/interface.ts</title>
<path fill="none" stroke="#757575" d="M1309.81,-738.748C1318.21,-736.115 1326.39,-732.906 1334,-729 1354.13,-718.672 1352.64,-707.508 1370,-693 1409.53,-659.97 1459.54,-626.928 1489.86,-607.752"/>
<polygon fill="#757575" stroke="#757575" points="1491.99,-610.543 1498.6,-602.261 1488.27,-604.615 1491.99,-610.543"/>
</g>
<!-- factory/xml/xmlObjectElementParser.ts&#45;&gt;factory/xml/utils.ts -->
<g id="edge70" class="edge"><title>factory/xml/xmlObjectElementParser.ts&#45;&gt;factory/xml/utils.ts</title>
<path fill="none" stroke="#757575" d="M1334.09,-748.918C1453.45,-747.91 1627.24,-746.442 1724.7,-745.619"/>
<polygon fill="#757575" stroke="#757575" points="1724.78,-749.119 1734.75,-745.534 1724.72,-742.119 1724.78,-749.119"/>
</g>
<!-- factory/xml/xmlObjectElementParser.ts&#45;&gt;factory/xml/xmlObjectDefinition.ts -->
<g id="edge71" class="edge"><title>factory/xml/xmlObjectElementParser.ts&#45;&gt;factory/xml/xmlObjectDefinition.ts</title>
<path fill="none" stroke="#757575" d="M1304.87,-761.338C1315.23,-765.03 1325.18,-769.815 1334,-776 1359.15,-793.639 1344.63,-817.681 1370,-835 1378.19,-840.589 1387.21,-845.089 1396.64,-848.699"/>
<polygon fill="#757575" stroke="#757575" points="1395.58,-852.039 1406.18,-852.021 1397.88,-845.428 1395.58,-852.039"/>
</g>
<!-- index.ts -->
<g id="node35" class="node"><title>index.ts</title>
<path fill="none" stroke="#c6c5fe" d="M57.8333,-810.5C57.8333,-810.5 8.16667,-810.5 8.16667,-810.5 4.33333,-810.5 0.5,-806.667 0.5,-802.833 0.5,-802.833 0.5,-795.167 0.5,-795.167 0.5,-791.333 4.33333,-787.5 8.16667,-787.5 8.16667,-787.5 57.8333,-787.5 57.8333,-787.5 61.6667,-787.5 65.5,-791.333 65.5,-795.167 65.5,-795.167 65.5,-802.833 65.5,-802.833 65.5,-806.667 61.6667,-810.5 57.8333,-810.5"/>
<text text-anchor="middle" x="33" y="-795.3" font-family="Arial" font-size="14.00" fill="#c6c5fe">index.ts</text>
</g>
<!-- index.ts&#45;&gt;annotation/index.ts -->
<g id="edge73" class="edge"><title>index.ts&#45;&gt;annotation/index.ts</title>
<path fill="none" stroke="#757575" d="M33.8042,-810.653C32.9143,-878.629 31.9372,-1223.41 102,-1295 192.969,-1387.96 260.939,-1341 391,-1341 391,-1341 391,-1341 908,-1341 1099.75,-1341 1325.31,-1350.03 1440.65,-1355.29"/>
<polygon fill="#757575" stroke="#757575" points="1440.63,-1358.8 1450.78,-1355.76 1440.95,-1351.81 1440.63,-1358.8"/>
</g>
<!-- index.ts&#45;&gt;interfaces.ts -->
<g id="edge91" class="edge"><title>index.ts&#45;&gt;interfaces.ts</title>
<path fill="none" stroke="#757575" d="M34.211,-787.476C35.619,-721.686 45.4234,-393.748 102,-314 185.617,-196.137 246.489,-165 391,-165 391,-165 391,-165 908,-165 1043.85,-165 2026.81,-155.35 2128,-246 2213.13,-322.267 2228.14,-708.022 2230.56,-803.568"/>
<polygon fill="#757575" stroke="#757575" points="2227.07,-803.825 2230.8,-813.741 2234.07,-803.662 2227.07,-803.825"/>
</g>
<!-- index.ts&#45;&gt;utils/metaKeys.ts -->
<g id="edge92" class="edge"><title>index.ts&#45;&gt;utils/metaKeys.ts</title>
<path fill="none" stroke="#757575" d="M34.1087,-810.335C34.9648,-879.6 42.2946,-1245.84 102,-1337 183.894,-1462.04 241.529,-1509 391,-1509 391,-1509 391,-1509 1800,-1509 1946.05,-1509 1985.47,-1520.85 2128,-1489 2152.86,-1483.44 2179.54,-1472.68 2199.52,-1463.57"/>
<polygon fill="#757575" stroke="#757575" points="2201.17,-1466.66 2208.75,-1459.26 2198.21,-1460.32 2201.17,-1466.66"/>
</g>
<!-- index.ts&#45;&gt;base/configuration.ts -->
<g id="edge74" class="edge"><title>index.ts&#45;&gt;base/configuration.ts</title>
<path fill="none" stroke="#757575" d="M34.3008,-787.532C36.5967,-704.344 52.6167,-195.472 102,-151 241.851,-25.0572 1614.39,-248.504 1953.53,-306.014"/>
<polygon fill="#757575" stroke="#757575" points="1953.05,-309.483 1963.5,-307.707 1954.22,-302.582 1953.05,-309.483"/>
</g>
<!-- index.ts&#45;&gt;base/decoratorManager.ts -->
<g id="edge75" class="edge"><title>index.ts&#45;&gt;base/decoratorManager.ts</title>
<path fill="none" stroke="#757575" d="M34.2446,-787.749C36.2968,-697.812 51.8285,-97.5191 102,-37 104.94,-33.4541 108.323,-30.3715 112.019,-27.6933"/>
<polygon fill="#757575" stroke="#757575" points="113.867,-30.6662 120.56,-22.4536 110.206,-24.6995 113.867,-30.6662"/>
</g>
<!-- index.ts&#45;&gt;base/objectCreator.ts -->
<g id="edge77" class="edge"><title>index.ts&#45;&gt;base/objectCreator.ts</title>
<path fill="none" stroke="#757575" d="M34.2014,-810.338C35.487,-868.488 44.4637,-1132.52 102,-1184 399.094,-1449.84 1502.51,-1253.04 1896,-1189 1927.42,-1183.89 1961.96,-1173.88 1987.97,-1165.42"/>
<polygon fill="#757575" stroke="#757575" points="1989.1,-1168.73 1997.5,-1162.26 1986.9,-1162.08 1989.1,-1168.73"/>
</g>
<!-- index.ts&#45;&gt;base/scope.ts -->
<g id="edge79" class="edge"><title>index.ts&#45;&gt;base/scope.ts</title>
<path fill="none" stroke="#757575" d="M36.0713,-810.444C41.6415,-837.964 59.494,-908.423 102,-947 179.333,-1017.19 221.752,-1002.75 324,-1024 708.036,-1103.82 811.757,-1091 1204,-1091 1204,-1091 1204,-1091 1519,-1091 1681.76,-1091 1872.94,-1071.51 1968.38,-1060.45"/>
<polygon fill="#757575" stroke="#757575" points="1968.9,-1063.91 1978.42,-1059.27 1968.08,-1056.96 1968.9,-1063.91"/>
</g>
<!-- index.ts&#45;&gt;base/messageSource.ts -->
<g id="edge76" class="edge"><title>index.ts&#45;&gt;base/messageSource.ts</title>
<path fill="none" stroke="#757575" d="M34.2368,-787.551C36.1588,-699.85 50.4726,-136.509 102,-84 192.547,8.27275 261.721,-51 391,-51 391,-51 391,-51 1519,-51 1664.74,-51 1833.9,-51 1936.12,-51"/>
<polygon fill="#757575" stroke="#757575" points="1936.41,-54.5001 1946.41,-51 1936.41,-47.5001 1936.41,-54.5001"/>
</g>
<!-- index.ts&#45;&gt;base/objectDefinition.ts -->
<g id="edge78" class="edge"><title>index.ts&#45;&gt;base/objectDefinition.ts</title>
<path fill="none" stroke="#757575" d="M43.4763,-810.309C81.846,-854.753 231.268,-1015 391,-1015 391,-1015 391,-1015 1206,-1015 1383.92,-1015 1591.77,-1006.78 1707.82,-1001.45"/>
<polygon fill="#757575" stroke="#757575" points="1708.24,-1004.93 1718.07,-1000.97 1707.92,-997.939 1708.24,-1004.93"/>
</g>
<!-- index.ts&#45;&gt;factory/applicationContext.ts -->
<g id="edge80" class="edge"><title>index.ts&#45;&gt;factory/applicationContext.ts</title>
<path fill="none" stroke="#757575" d="M34.207,-787.383C35.5331,-726.542 44.727,-445.122 102,-385 192.609,-289.883 259.633,-323 391,-323 391,-323 391,-323 618,-323 786.197,-323 981.517,-326.753 1098.8,-329.412"/>
<polygon fill="#757575" stroke="#757575" points="1098.78,-332.912 1108.85,-329.641 1098.94,-325.914 1098.78,-332.912"/>
</g>
<!-- index.ts&#45;&gt;factory/common/autowire.ts -->
<g id="edge81" class="edge"><title>index.ts&#45;&gt;factory/common/autowire.ts</title>
<path fill="none" stroke="#757575" d="M34.2336,-787.697C36.1103,-702.31 50.0289,-160.691 102,-113 160.778,-59.0626 1335.6,-80.6838 1694.66,-88.5865"/>
<polygon fill="#757575" stroke="#757575" points="1694.71,-92.0884 1704.79,-88.8105 1694.87,-85.0901 1694.71,-92.0884"/>
</g>
<!-- index.ts&#45;&gt;factory/common/constants.ts -->
<g id="edge82" class="edge"><title>index.ts&#45;&gt;factory/common/constants.ts</title>
<path fill="none" stroke="#757575" d="M54.5277,-810.275C67.7155,-817.03 85.4219,-825.211 102,-830 275.217,-880.043 725.699,-939 906,-939 906,-939 906,-939 1206,-939 1515.5,-939 1611.47,-966.789 1896,-845 1936.33,-827.738 1979.15,-800.076 2004.99,-782.224"/>
<polygon fill="#757575" stroke="#757575" points="2007.2,-784.951 2013.39,-776.352 2003.19,-779.214 2007.2,-784.951"/>
</g>
<!-- index.ts&#45;&gt;factory/common/managed.ts -->
<g id="edge83" class="edge"><title>index.ts&#45;&gt;factory/common/managed.ts</title>
<path fill="none" stroke="#757575" d="M54.1574,-810.39C67.3462,-817.28 85.1893,-825.566 102,-830 448.859,-921.495 547.276,-901 906,-901 906,-901 906,-901 1206,-901 1410.64,-901 1466.4,-926.125 1666,-881 1702.98,-872.64 1742.68,-854.407 1768.77,-841.008"/>
<polygon fill="#757575" stroke="#757575" points="1770.5,-844.053 1777.74,-836.317 1767.26,-837.85 1770.5,-844.053"/>
</g>
<!-- index.ts&#45;&gt;factory/container.ts -->
<g id="edge84" class="edge"><title>index.ts&#45;&gt;factory/container.ts</title>
<path fill="none" stroke="#757575" d="M34.4238,-810.384C36.722,-865.366 49.5982,-1102.67 102,-1149 166.913,-1206.39 275.345,-1195.6 339.321,-1182.4"/>
<polygon fill="#757575" stroke="#757575" points="340.157,-1185.8 349.194,-1180.27 338.681,-1178.95 340.157,-1185.8"/>
</g>
<!-- index.ts&#45;&gt;factory/xml/xmlApplicationContext.ts -->
<g id="edge87" class="edge"><title>index.ts&#45;&gt;factory/xml/xmlApplicationContext.ts</title>
<path fill="none" stroke="#757575" d="M36.2959,-787.648C42.1706,-761.759 60.3199,-698.258 102,-668 213.548,-587.02 374.445,-572.333 486.402,-573.708"/>
<polygon fill="#757575" stroke="#757575" points="486.345,-577.208 496.402,-573.875 486.462,-570.209 486.345,-577.208"/>
</g>
<!-- index.ts&#45;&gt;factory/requestContainer.ts -->
<g id="edge85" class="edge"><title>index.ts&#45;&gt;factory/requestContainer.ts</title>
<path fill="none" stroke="#757575" d="M34.0917,-810.373C34.9448,-849.708 42.3358,-982.202 102,-1067 116.161,-1087.13 139.102,-1102.61 158.533,-1113.06"/>
<polygon fill="#757575" stroke="#757575" points="156.959,-1116.19 167.452,-1117.65 160.162,-1109.97 156.959,-1116.19"/>
</g>
<!-- index.ts&#45;&gt;factory/xml/interface.ts -->
<g id="edge86" class="edge"><title>index.ts&#45;&gt;factory/xml/interface.ts</title>
<path fill="none" stroke="#757575" d="M34.9761,-787.659C38.4023,-753.806 52.4987,-651.816 102,-587 195.004,-465.222 237.77,-399 391,-399 391,-399 391,-399 908,-399 1099.08,-399 1156.81,-385.472 1334,-457 1401.71,-484.333 1467.34,-542.374 1498.38,-572.297"/>
<polygon fill="#757575" stroke="#757575" points="1496.26,-575.113 1505.85,-579.603 1501.15,-570.108 1496.26,-575.113"/>
</g>
<!-- index.ts&#45;&gt;factory/xml/xmlObjectDefinitionParser.ts -->
<g id="edge89" class="edge"><title>index.ts&#45;&gt;factory/xml/xmlObjectDefinitionParser.ts</title>
<path fill="none" stroke="#757575" d="M48.1919,-787.561C61.3442,-777.584 81.8612,-763.559 102,-756 323.837,-672.74 600.142,-644.923 764.297,-635.639"/>
<polygon fill="#757575" stroke="#757575" points="764.667,-639.124 774.459,-635.08 764.282,-632.135 764.667,-639.124"/>
</g>
<!-- index.ts&#45;&gt;factory/xml/xmlObjectDefinition.ts -->
<g id="edge88" class="edge"><title>index.ts&#45;&gt;factory/xml/xmlObjectDefinition.ts</title>
<path fill="none" stroke="#757575" d="M65.9308,-803.342C128.285,-811.432 270.675,-828 391,-828 391,-828 391,-828 908,-828 1077.55,-828 1273.25,-840.911 1396.06,-850.581"/>
<polygon fill="#757575" stroke="#757575" points="1396,-854.087 1406.25,-851.389 1396.56,-847.109 1396,-854.087"/>
</g>
<!-- index.ts&#45;&gt;factory/xml/xmlObjectElementParser.ts -->
<g id="edge90" class="edge"><title>index.ts&#45;&gt;factory/xml/xmlObjectElementParser.ts</title>
<path fill="none" stroke="#757575" d="M65.9308,-794.658C128.285,-786.568 270.675,-770 391,-770 391,-770 391,-770 618,-770 771.191,-770 946.777,-763.089 1065.49,-757.392"/>
<polygon fill="#757575" stroke="#757575" points="1065.9,-760.876 1075.72,-756.897 1065.57,-753.884 1065.9,-760.876"/>
</g>
</g>
</svg>
